<svg xmlns="http://www.w3.org/2000/svg" width="375" viewBox="0 0 375 375" height="375" version="1.0"><defs><clipPath id="a"><path d="M 13.125 0 L 361.875 0 L 361.875 330 L 13.125 330 Z M 13.125 0"/></clipPath><clipPath id="b"><path d="M 327 77 L 361.875 77 L 361.875 93 L 327 93 Z M 327 77"/></clipPath><clipPath id="c"><path d="M 314 64 L 361.875 64 L 361.875 106 L 314 106 Z M 314 64"/></clipPath></defs><g clip-path="url(#a)"><path fill="#3B9C4A" d="M 245.726562 69.75 C 245.285156 66.960938 247.488281 64.40625 249.945312 63.023438 C 252.40625 61.640625 255.234375 60.976562 257.59375 59.425781 C 259.9375 57.878906 261.65625 55.566406 263.777344 53.71875 C 269.179688 49.011719 276.65625 47.714844 283.730469 46.597656 C 287.445312 46.011719 291.238281 45.421875 294.941406 46.085938 C 298.644531 46.742188 302.296875 48.886719 303.746094 52.355469 C 306.152344 58.128906 301.347656 64.773438 295.511719 67.003906 C 289.671875 69.242188 283.1875 68.484375 276.9375 68.457031 C 267.144531 68.414062 257.34375 70.28125 248.246094 73.914062 L 245.726562 69.75 M 61.679688 171.730469 C 61.679688 171.730469 61.144531 171.871094 60.464844 172.152344 C 67.542969 172.214844 73.09375 178.886719 80.136719 179.859375 C 82.433594 180.179688 85.375 179.351562 85.738281 177.0625 C 85.863281 176.308594 85.671875 175.484375 86.027344 174.804688 C 86.589844 173.734375 88.089844 173.703125 89.296875 173.820312 C 90.957031 173.984375 92.671875 174.164062 94.128906 174.972656 C 95.585938 175.789062 96.726562 177.414062 96.449219 179.054688 C 96.023438 181.515625 93.066406 182.429688 91.15625 184.03125 C 89.703125 185.253906 88.796875 186.996094 87.535156 188.414062 C 85.460938 190.738281 82.367188 192.121094 79.253906 192.117188 C 73.785156 192.117188 69.203125 188.207031 65.167969 184.519531 C 62.570312 182.152344 60.273438 179.515625 58.242188 176.65625 C 56.539062 174.265625 58.890625 172.8125 60.464844 172.152344 L 60.265625 172.144531 C 60.398438 171.5625 61.253906 171.316406 61.679688 171.730469 M 164.972656 41.859375 C 149.011719 78.035156 161.78125 124.847656 140.5 158.894531 C 136.246094 138.679688 143.691406 90.804688 144.753906 84.417969 C 147.949219 66.332031 147.949219 49.308594 153.269531 32.28125 C 157.589844 19.746094 165.777344 10.195312 175.691406 2.207031 C 161.375 3.546875 147.117188 6.277344 132.980469 9.003906 C 120.605469 11.386719 82.195312 34.414062 101.132812 139.742188 C 103.265625 145.0625 91.558594 138.679688 84.113281 131.230469 C 83.046875 130.167969 80.917969 125.910156 80.917969 125.910156 C 76.1875 116.441406 75.984375 101.933594 75.34375 91.546875 C 74.640625 80.101562 74.914062 68.625 75.511719 57.183594 C 75.910156 49.679688 80.285156 33.855469 76.761719 27.015625 C 72.6875 19.113281 59.429688 28.429688 55.007812 32.261719 C 44.828125 41.085938 38.269531 53.25 31.925781 65.136719 C 30.085938 68.578125 28.25 72.023438 26.414062 75.46875 C 24.726562 78.625 23.035156 81.796875 21.039062 84.773438 C 19.878906 86.507812 18.601562 88.203125 17.828125 90.140625 C 16.917969 92.429688 16.769531 94.933594 16.621094 97.386719 C 15.71875 112.65625 14.816406 127.933594 13.914062 143.203125 C 13.710938 146.636719 13.519531 150.179688 14.699219 153.410156 C 16.941406 159.574219 23.511719 163.101562 26.6875 168.839844 C 29.792969 174.453125 29.304688 181.523438 32.464844 187.101562 C 36.421875 194.085938 45.050781 197.039062 50.089844 203.285156 C 52.148438 205.835938 53.546875 208.863281 55.636719 211.382812 C 60.851562 217.6875 69.4375 219.882812 77.449219 221.542969 C 84.222656 222.941406 91.085938 224.222656 98.003906 224.050781 C 109.621094 223.757812 122.484375 218.394531 133.917969 221.992188 C 132.367188 226.867188 129.65625 231.621094 127.476562 236.277344 C 123.921875 243.871094 117.726562 250.1875 115.851562 258.550781 C 114.550781 264.324219 115.816406 271.078125 120.476562 274.726562 C 122.65625 276.433594 125.390625 277.34375 127.480469 279.160156 C 131.679688 282.804688 132.234375 288.96875 134.074219 294.214844 C 139.382812 309.371094 155.722656 317.183594 170.527344 323.414062 C 178.292969 326.6875 186.402344 330.019531 194.8125 329.523438 C 198.324219 329.316406 201.769531 328.441406 205.273438 328.132812 C 209.363281 327.769531 213.457031 328.179688 217.554688 328.59375 C 221.21875 328.960938 224.886719 329.328125 228.558594 329.144531 C 235.285156 328.804688 241.761719 326.617188 248.140625 324.449219 C 252.179688 323.074219 262.710938 320.210938 264.347656 315.570312 C 266.273438 310.113281 256.253906 310.480469 251.855469 309.515625 C 239.960938 306.902344 228.246094 303.167969 217.273438 297.832031 C 195.742188 287.375 177.835938 270.339844 170.289062 247.203125 C 173.480469 247.203125 175.613281 250.394531 177.742188 250.394531 C 182.089844 251.359375 186.882812 251.226562 191.617188 251.097656 C 197.292969 250.9375 202.886719 250.777344 207.53125 252.519531 C 218.171875 257.839844 225.617188 267.417969 236.257812 274.867188 C 280.941406 309.976562 310.5625 280.625 317.898438 270.8125 C 310.640625 270.464844 303.765625 268.941406 296.902344 267.417969 C 290.519531 265.289062 288.390625 256.777344 282.007812 255.710938 C 255.40625 250.394531 224.554688 245.074219 212.847656 219.539062 C 216.039062 219.539062 219.234375 218.476562 221.359375 219.539062 C 240.511719 238.691406 289.453125 245.074219 310.734375 235.5 C 327.058594 228.96875 341.710938 220.417969 343.042969 212.992188 C 344.464844 205.054688 345.191406 197.023438 345.792969 188.96875 C 343.671875 188.417969 333.058594 191.945312 320.183594 195.480469 C 303.582031 200.027344 283.214844 204.582031 272.429688 200.386719 C 252.214844 191.878906 230.9375 189.746094 245.832031 183.363281 C 259.289062 177.515625 267.277344 178.742188 275.8125 179.96875 C 282.800781 180.972656 290.148438 181.980469 301.15625 179.109375 C 305.929688 177.679688 346.113281 155.820312 349.613281 152.445312 C 357.417969 144.917969 354.550781 131.289062 357.078125 120.734375 C 345.566406 121 334.839844 127.738281 323.5 130.167969 C 303.285156 134.425781 272.429688 148.257812 258.597656 131.230469 C 261.792969 130.167969 264.984375 128.039062 268.171875 129.101562 C 296.902344 132.292969 312.859375 106.761719 330.949219 88.671875 C 339.539062 80.699219 350.257812 78.035156 361.457031 77.609375 C 359.578125 61.410156 352.742188 45.867188 339.242188 37.308594 C 332.378906 32.957031 324.394531 30.785156 316.550781 28.671875 C 299.738281 24.144531 245.976562 33.316406 234.128906 39.734375 C 208.59375 53.5625 193.699219 85.480469 189.445312 116.335938 C 185.1875 115.273438 179.867188 114.207031 180.929688 109.953125 C 185.1875 87.609375 181.996094 66.332031 188.375 45.050781 C 191.949219 28.988281 204.507812 16.664062 215.367188 3.058594 C 211.117188 2.425781 206.847656 1.9375 202.554688 1.65625 C 199.164062 1.433594 195.480469 -0.03125 192.394531 1.363281 C 177.191406 8.226562 171.03125 27.140625 164.972656 41.859375"/></g><path fill="#DDDCDC" d="M 79.761719 123.222656 C 79.75 123.21875 79.742188 123.210938 79.734375 123.207031 C 76.210938 114.003906 75.933594 101.460938 75.375 92.070312 C 75.933594 101.46875 76.222656 114.023438 79.761719 123.222656 M 75.375 92.070312 C 75.375 92.058594 75.375 92.050781 75.375 92.042969 C 75.375 92.050781 75.375 92.058594 75.375 92.070312 M 75.371094 91.996094 C 75.371094 91.996094 75.371094 91.992188 75.371094 91.992188 C 75.371094 91.992188 75.371094 91.996094 75.371094 91.996094 M 74.925781 77.1875 C 74.925781 70.511719 75.164062 63.84375 75.511719 57.183594 C 75.582031 55.847656 75.78125 54.246094 76.035156 52.476562 C 76.039062 52.472656 76.039062 52.472656 76.039062 52.46875 C 75.785156 54.234375 75.585938 55.847656 75.511719 57.183594 C 75.164062 63.84375 74.925781 70.511719 74.925781 77.1875"/><path fill="#33873F" d="M 79.734375 123.207031 C 67.214844 114.253906 51.433594 105.597656 56.449219 86.546875 C 60.03125 73.113281 68.882812 63.445312 76.035156 52.476562 C 75.78125 54.246094 75.582031 55.847656 75.511719 57.183594 C 75.164062 63.84375 74.925781 70.511719 74.925781 77.1875 C 74.925781 81.976562 75.050781 86.765625 75.34375 91.546875 C 75.355469 91.691406 75.363281 91.839844 75.371094 91.992188 C 75.371094 91.992188 75.371094 91.996094 75.371094 91.996094 C 75.371094 92.011719 75.371094 92.027344 75.375 92.042969 C 75.375 92.050781 75.375 92.058594 75.375 92.070312 C 75.933594 101.460938 76.210938 114.003906 79.734375 123.207031"/><g clip-path="url(#b)"><path fill="#DDDCDC" d="M 327.316406 92.421875 C 328.519531 91.144531 329.730469 89.890625 330.949219 88.671875 C 339.539062 80.699219 350.257812 78.035156 361.457031 77.609375 C 350.257812 78.035156 339.539062 80.699219 330.949219 88.671875 C 329.730469 89.890625 328.519531 91.144531 327.316406 92.421875"/></g><g clip-path="url(#c)"><path fill="#33873F" d="M 315.183594 105.617188 C 312.527344 85.269531 329.402344 64.796875 350.019531 64.796875 C 351.792969 64.796875 353.597656 64.949219 355.417969 65.269531 C 356.71875 65.46875 357.972656 65.761719 359.203125 66.097656 C 360.257812 69.839844 361.003906 73.707031 361.457031 77.609375 C 350.257812 78.035156 339.539062 80.699219 330.949219 88.671875 C 329.730469 89.890625 328.519531 91.144531 327.316406 92.421875 C 323.269531 96.703125 319.285156 101.238281 315.183594 105.617188"/></g><path fill="#DDDCDC" d="M 272.429688 200.386719 C 270.449219 199.554688 268.453125 198.78125 266.488281 198.058594 C 268.453125 198.78125 270.449219 199.554688 272.429688 200.386719"/><path fill="#33873F" d="M 288.742188 208.574219 C 277.925781 208.574219 267.808594 205.019531 259.230469 195.554688 C 261.5625 196.320312 264.003906 197.148438 266.488281 198.058594 C 268.453125 198.78125 270.449219 199.554688 272.429688 200.386719 C 275.433594 201.558594 279.183594 202.046875 283.386719 202.046875 C 294.269531 202.046875 308.207031 198.761719 320.183594 195.480469 C 332.160156 192.199219 342.179688 188.914062 345.222656 188.914062 C 345.453125 188.914062 345.644531 188.929688 345.792969 188.96875 C 345.78125 189.105469 345.769531 189.238281 345.761719 189.371094 C 327.414062 198.367188 307.066406 208.574219 288.742188 208.574219"/><path fill="#DDDCDC" d="M 315.128906 270.625 C 308.878906 270.074219 302.890625 268.75 296.902344 267.417969 C 302.890625 268.75 308.882812 270.074219 315.128906 270.625"/><path fill="#33873F" d="M 291.988281 277.171875 C 288.890625 277.171875 285.902344 276.515625 283.070312 274.867188 C 278.113281 271.890625 280.542969 262.449219 279.175781 255.148438 C 280.125 255.339844 281.066406 255.527344 282.007812 255.710938 C 288.390625 256.777344 290.519531 265.289062 296.902344 267.417969 C 302.890625 268.75 308.878906 270.074219 315.128906 270.625 C 307.207031 273.523438 299.292969 277.175781 291.988281 277.171875"/><path fill="#DDDCDC" d="M 132.785156 289.898438 C 131.683594 285.886719 130.570312 281.871094 127.523438 279.195312 C 130.570312 281.871094 131.683594 285.886719 132.785156 289.898438 M 127.515625 279.1875 C 127.511719 279.183594 127.507812 279.179688 127.503906 279.179688 C 127.507812 279.179688 127.511719 279.183594 127.515625 279.1875 M 127.480469 279.160156 C 125.390625 277.34375 122.65625 276.433594 120.476562 274.726562 C 120.472656 274.722656 120.464844 274.714844 120.457031 274.710938 C 120.464844 274.714844 120.472656 274.722656 120.476562 274.726562 C 122.65625 276.433594 125.390625 277.34375 127.480469 279.160156"/><path fill="#33873F" d="M 132.785156 289.898438 C 131.683594 285.886719 130.570312 281.871094 127.523438 279.195312 C 127.519531 279.195312 127.515625 279.1875 127.515625 279.1875 C 127.511719 279.183594 127.507812 279.179688 127.503906 279.179688 C 127.492188 279.171875 127.488281 279.167969 127.480469 279.160156 C 125.390625 277.34375 122.65625 276.433594 120.476562 274.726562 C 120.472656 274.722656 120.464844 274.714844 120.457031 274.710938 C 118.859375 273.453125 117.671875 271.824219 116.839844 269.996094 C 119.8125 269.71875 122.761719 269.394531 125.65625 269.394531 C 126.710938 269.394531 127.761719 269.441406 128.796875 269.542969 C 130.921875 270.609375 134.117188 272.734375 135.179688 273.800781 C 137.308594 280.1875 135.714844 285.242188 132.785156 289.898438"/><path fill="#DDDCDC" d="M 193.132812 329.574219 C 192.875 329.574219 192.613281 329.570312 192.359375 329.5625 C 192.613281 329.570312 192.871094 329.570312 193.128906 329.570312 C 193.691406 329.570312 194.246094 329.558594 194.8125 329.523438 C 198.324219 329.316406 201.769531 328.441406 205.273438 328.132812 C 206.378906 328.035156 207.488281 327.996094 208.59375 327.996094 C 211.578125 327.996094 214.5625 328.292969 217.554688 328.59375 C 220.542969 328.894531 223.53125 329.195312 226.519531 329.195312 C 227.203125 329.195312 227.882812 329.179688 228.558594 329.144531 C 228.785156 329.128906 229.007812 329.117188 229.234375 329.105469 C 229.007812 329.117188 228.785156 329.128906 228.558594 329.144531 C 227.882812 329.179688 227.203125 329.195312 226.519531 329.195312 C 223.53125 329.195312 220.542969 328.894531 217.554688 328.59375 C 214.5625 328.292969 211.578125 327.996094 208.59375 327.996094 C 207.488281 327.996094 206.378906 328.035156 205.273438 328.132812 C 201.769531 328.441406 198.324219 329.316406 194.8125 329.523438 C 194.25 329.558594 193.691406 329.574219 193.132812 329.574219"/><path fill="#33873F" d="M 193.128906 329.570312 C 192.871094 329.570312 192.613281 329.570312 192.359375 329.5625 C 189.769531 329.496094 187.203125 329.089844 184.671875 328.476562 C 192.027344 321.429688 200.925781 316.378906 210.601562 316.378906 C 213.078125 316.378906 215.605469 316.710938 218.171875 317.425781 C 224.445312 319.132812 229.496094 323.90625 234.96875 328.292969 C 233.074219 328.675781 231.164062 328.972656 229.234375 329.105469 C 229.007812 329.117188 228.785156 329.128906 228.558594 329.144531 C 227.882812 329.179688 227.203125 329.195312 226.519531 329.195312 C 223.53125 329.195312 220.542969 328.894531 217.554688 328.59375 C 214.5625 328.292969 211.578125 327.996094 208.59375 327.996094 C 207.488281 327.996094 206.378906 328.035156 205.273438 328.132812 C 201.769531 328.441406 198.324219 329.316406 194.8125 329.523438 C 194.246094 329.558594 193.691406 329.570312 193.128906 329.570312"/><path fill="#DDDCDC" d="M 245.6875 69.398438 C 245.472656 66.75 247.59375 64.34375 249.945312 63.023438 C 252.40625 61.640625 255.234375 60.976562 257.59375 59.425781 C 259.9375 57.878906 261.65625 55.566406 263.777344 53.71875 C 269.179688 49.011719 276.65625 47.714844 283.730469 46.597656 C 286.28125 46.191406 288.867188 45.789062 291.433594 45.789062 C 292.609375 45.789062 293.78125 45.878906 294.941406 46.085938 C 294.953125 46.085938 294.964844 46.085938 294.976562 46.089844 C 294.964844 46.085938 294.953125 46.085938 294.941406 46.085938 C 293.78125 45.878906 292.609375 45.789062 291.433594 45.789062 C 288.867188 45.789062 286.28125 46.191406 283.730469 46.597656 C 276.65625 47.714844 269.179688 49.011719 263.777344 53.71875 C 261.65625 55.566406 259.9375 57.878906 257.59375 59.425781 C 255.234375 60.976562 252.40625 61.640625 249.945312 63.023438 C 247.59375 64.347656 245.476562 66.75 245.691406 69.398438 C 245.691406 69.398438 245.6875 69.398438 245.6875 69.398438 M 302.511719 50.316406 C 300.714844 48.054688 297.871094 46.613281 294.976562 46.089844 C 297.863281 46.605469 300.714844 48.03125 302.511719 50.285156 C 302.511719 50.292969 302.511719 50.304688 302.511719 50.316406"/><path fill="#33873F" d="M 241.714844 69.683594 C 239.78125 69.683594 238.382812 69.238281 238.382812 67.394531 C 239.449219 42.921875 276.6875 41.859375 297.964844 41.859375 C 300.089844 41.859375 301.15625 45.050781 302.222656 46.117188 C 302.457031 47.554688 302.53125 48.929688 302.511719 50.285156 C 300.714844 48.03125 297.863281 46.605469 294.976562 46.089844 C 294.964844 46.085938 294.953125 46.085938 294.941406 46.085938 C 293.78125 45.878906 292.609375 45.789062 291.433594 45.789062 C 288.867188 45.789062 286.28125 46.191406 283.730469 46.597656 C 276.65625 47.714844 269.179688 49.011719 263.777344 53.71875 C 261.65625 55.566406 259.9375 57.878906 257.59375 59.425781 C 255.234375 60.976562 252.40625 61.640625 249.945312 63.023438 C 247.59375 64.34375 245.472656 66.75 245.6875 69.398438 C 244.296875 69.515625 242.902344 69.683594 241.714844 69.683594"/><path fill="#DDDCDC" d="M 184.230469 70.710938 C 184.226562 70.707031 184.226562 70.703125 184.222656 70.703125 C 184.800781 62.125 185.816406 53.613281 188.363281 45.105469 C 185.816406 53.617188 184.804688 62.132812 184.230469 70.710938 M 188.375 45.050781 C 188.382812 45.035156 188.386719 45.015625 188.390625 45 C 188.386719 45.015625 188.382812 45.035156 188.375 45.050781 M 188.390625 44.996094 C 188.394531 44.984375 188.398438 44.964844 188.402344 44.949219 C 188.398438 44.964844 188.394531 44.984375 188.390625 44.996094 M 188.402344 44.945312 C 188.40625 44.929688 188.40625 44.914062 188.410156 44.898438 C 188.40625 44.914062 188.40625 44.929688 188.402344 44.945312 M 188.410156 44.898438 C 190.40625 36.078125 195.101562 28.394531 200.730469 20.996094 C 200.730469 20.996094 200.734375 20.992188 200.738281 20.992188 C 195.113281 28.390625 190.40625 36.078125 188.410156 44.898438"/><path fill="#33873F" d="M 184.222656 70.703125 C 172.089844 52.46875 183.570312 32.027344 200.730469 20.996094 C 195.101562 28.394531 190.40625 36.078125 188.410156 44.898438 C 188.40625 44.914062 188.40625 44.929688 188.402344 44.945312 C 188.402344 44.949219 188.402344 44.949219 188.402344 44.949219 C 188.398438 44.964844 188.394531 44.984375 188.390625 44.996094 C 188.390625 44.996094 188.390625 45 188.390625 45 C 188.386719 45.015625 188.382812 45.035156 188.375 45.050781 C 188.371094 45.070312 188.367188 45.085938 188.363281 45.105469 C 185.816406 53.613281 184.800781 62.125 184.222656 70.703125"/><path fill="#DDDCDC" d="M 150.085938 45.367188 C 150.085938 45.367188 150.085938 45.367188 150.085938 45.363281 C 150.085938 45.367188 150.085938 45.367188 150.085938 45.367188 M 150.101562 45.285156 C 150.101562 45.277344 150.109375 45.265625 150.109375 45.25 C 150.109375 45.265625 150.101562 45.273438 150.101562 45.285156 M 150.113281 45.21875 C 150.117188 45.203125 150.121094 45.175781 150.125 45.160156 C 150.121094 45.175781 150.117188 45.203125 150.113281 45.21875 M 150.128906 45.144531 C 150.925781 40.871094 151.917969 36.621094 153.242188 32.367188 C 151.917969 36.621094 150.925781 40.871094 150.128906 45.144531 M 153.242188 32.363281 C 153.253906 32.339844 153.261719 32.308594 153.269531 32.28125 C 153.261719 32.3125 153.253906 32.335938 153.242188 32.363281 M 153.292969 32.21875 C 153.292969 32.214844 153.292969 32.210938 153.296875 32.210938 C 153.292969 32.210938 153.292969 32.214844 153.292969 32.21875 M 153.316406 32.144531 C 153.316406 32.140625 153.320312 32.136719 153.320312 32.132812 C 153.320312 32.136719 153.316406 32.140625 153.316406 32.144531 M 153.34375 32.070312 C 153.34375 32.066406 153.347656 32.058594 153.347656 32.054688 C 153.347656 32.058594 153.34375 32.066406 153.34375 32.070312 M 153.371094 31.996094 C 153.371094 31.992188 153.371094 31.988281 153.375 31.984375 C 153.371094 31.988281 153.371094 31.992188 153.371094 31.996094 M 153.390625 31.933594 C 153.394531 31.925781 153.394531 31.914062 153.398438 31.910156 C 153.394531 31.914062 153.394531 31.925781 153.390625 31.933594 M 153.417969 31.859375 C 153.421875 31.851562 153.425781 31.84375 153.425781 31.832031 C 153.425781 31.84375 153.421875 31.851562 153.417969 31.859375 M 153.441406 31.789062 C 153.445312 31.777344 153.453125 31.765625 153.457031 31.75 C 153.453125 31.765625 153.445312 31.777344 153.441406 31.789062 M 153.464844 31.726562 C 153.472656 31.703125 153.476562 31.6875 153.484375 31.664062 C 153.476562 31.6875 153.472656 31.703125 153.464844 31.726562 M 153.488281 31.652344 C 155.960938 24.757812 159.601562 18.773438 164.0625 13.457031 C 164.066406 13.457031 164.070312 13.453125 164.070312 13.453125 C 159.613281 18.769531 155.960938 24.757812 153.488281 31.652344"/><path fill="#33873F" d="M 146.214844 74.773438 C 135.445312 56.710938 131.566406 31.3125 152.207031 19.519531 C 156.316406 17.460938 159.984375 14.972656 164.0625 13.457031 C 159.601562 18.773438 155.960938 24.757812 153.488281 31.652344 C 153.488281 31.65625 153.484375 31.660156 153.484375 31.664062 C 153.476562 31.6875 153.472656 31.703125 153.464844 31.726562 C 153.460938 31.734375 153.460938 31.742188 153.457031 31.75 C 153.453125 31.765625 153.445312 31.777344 153.441406 31.789062 C 153.4375 31.804688 153.429688 31.816406 153.425781 31.832031 C 153.425781 31.84375 153.421875 31.851562 153.417969 31.859375 C 153.414062 31.875 153.402344 31.894531 153.398438 31.910156 C 153.394531 31.914062 153.394531 31.925781 153.390625 31.933594 C 153.386719 31.949219 153.378906 31.96875 153.375 31.984375 C 153.371094 31.988281 153.371094 31.992188 153.371094 31.996094 C 153.359375 32.015625 153.351562 32.035156 153.347656 32.054688 C 153.347656 32.058594 153.34375 32.066406 153.34375 32.070312 C 153.335938 32.089844 153.332031 32.109375 153.320312 32.132812 C 153.320312 32.136719 153.316406 32.140625 153.316406 32.144531 C 153.308594 32.167969 153.300781 32.1875 153.296875 32.210938 C 153.292969 32.210938 153.292969 32.214844 153.292969 32.21875 C 153.28125 32.238281 153.273438 32.261719 153.269531 32.28125 C 153.261719 32.308594 153.253906 32.339844 153.242188 32.363281 C 153.242188 32.363281 153.242188 32.363281 153.242188 32.367188 C 151.917969 36.621094 150.925781 40.871094 150.128906 45.144531 C 150.128906 45.148438 150.125 45.152344 150.125 45.160156 C 150.121094 45.175781 150.117188 45.203125 150.113281 45.21875 C 150.113281 45.234375 150.113281 45.242188 150.109375 45.25 C 150.109375 45.265625 150.101562 45.277344 150.101562 45.285156 C 150.097656 45.3125 150.09375 45.335938 150.085938 45.363281 C 150.085938 45.367188 150.085938 45.367188 150.085938 45.367188 C 148.304688 55.023438 147.523438 64.757812 146.214844 74.773438"/><path fill="#DDDCDC" d="M 28.398438 173.066406 C 28.394531 173.054688 28.394531 173.050781 28.390625 173.046875 C 28.394531 173.050781 28.394531 173.054688 28.398438 173.066406 M 28.390625 173.039062 C 27.96875 171.613281 27.445312 170.226562 26.730469 168.917969 C 27.445312 170.226562 27.96875 171.613281 28.390625 173.039062 M 26.730469 168.917969 C 26.726562 168.910156 26.722656 168.902344 26.710938 168.886719 C 26.722656 168.894531 26.726562 168.910156 26.730469 168.917969 M 26.707031 168.878906 C 26.707031 168.875 26.703125 168.871094 26.703125 168.867188 C 26.703125 168.871094 26.707031 168.875 26.707031 168.878906"/><path fill="#33873F" d="M 30.007812 180.089844 C 29.480469 177.757812 29.070312 175.375 28.40625 173.09375 C 28.402344 173.082031 28.398438 173.074219 28.398438 173.066406 C 28.394531 173.054688 28.394531 173.050781 28.390625 173.046875 C 28.390625 173.042969 28.390625 173.042969 28.390625 173.039062 C 27.96875 171.613281 27.445312 170.226562 26.730469 168.917969 C 26.726562 168.910156 26.722656 168.894531 26.710938 168.886719 C 26.710938 168.882812 26.710938 168.882812 26.707031 168.878906 C 26.707031 168.875 26.703125 168.871094 26.703125 168.867188 C 26.699219 168.859375 26.691406 168.847656 26.6875 168.839844 C 23.511719 163.101562 16.941406 159.574219 14.699219 153.410156 C 14.578125 153.078125 14.476562 152.734375 14.382812 152.394531 C 21.179688 152.550781 27.300781 153.214844 30.914062 158.894531 C 34.660156 165.136719 33.636719 172.847656 30.007812 180.089844"/><path fill="#DDDCDC" d="M 124.078125 242.347656 C 124.074219 242.347656 124.074219 242.347656 124.074219 242.339844 C 124.875 241.066406 125.652344 239.777344 126.371094 238.457031 C 125.652344 239.777344 124.875 241.066406 124.078125 242.347656"/><path fill="#33873F" d="M 172.417969 298.269531 C 151.140625 294.015625 145.824219 268.480469 135.179688 251.460938 C 132.167969 247.101562 128.308594 244.125 124.078125 242.347656 C 124.875 241.066406 125.652344 239.777344 126.371094 238.457031 C 126.757812 237.742188 127.128906 237.015625 127.476562 236.277344 C 129.648438 231.640625 132.339844 226.90625 133.898438 222.054688 C 132.832031 225.382812 131.230469 228.652344 129.632812 231.875 C 135.949219 234.394531 141.28125 239.753906 144.753906 247.203125 C 144.753906 235.5 141.5625 220.605469 155.394531 216.347656 C 156.457031 216.113281 157.511719 216.007812 158.554688 216.007812 C 166.878906 216.007812 174.542969 222.734375 183.058594 222.734375 C 181.996094 218.476562 179.867188 216.347656 175.613281 213.15625 C 174.542969 213.15625 173.480469 208.898438 174.542969 208.898438 C 186.472656 205.917969 197.472656 199.222656 210.148438 199.222656 C 211.039062 199.222656 211.941406 199.257812 212.847656 199.324219 C 214.976562 199.324219 213.914062 196.132812 213.914062 195.070312 C 200.082031 190.8125 185.1875 187.621094 192.636719 170.597656 C 195.828125 164.214844 195.828125 153.574219 203.273438 151.445312 C 206.464844 150.382812 209.925781 149.585938 213.246094 149.585938 C 216.570312 149.585938 219.765625 150.382812 222.425781 152.511719 C 224.554688 155.703125 227.742188 158.894531 230.9375 162.085938 C 233.066406 163.152344 235.195312 163.152344 237.320312 163.152344 C 220.296875 149.320312 224.554688 130.167969 240.511719 117.398438 C 241.574219 116.335938 243.703125 114.207031 245.832031 114.207031 C 245.832031 111.015625 246.898438 105.699219 244.765625 104.636719 C 243.71875 103.792969 242.664062 103.453125 241.621094 103.453125 C 237.386719 103.453125 233.285156 109.097656 229.871094 109.953125 C 221.359375 113.144531 213.914062 117.398438 208.59375 125.910156 C 200.082031 138.679688 188.375 150.382812 174.542969 156.765625 C 175.613281 154.640625 174.542969 151.445312 173.480469 150.382812 C 172.949219 150.382812 171.886719 150.117188 170.957031 150.117188 C 170.027344 150.117188 169.226562 150.382812 169.226562 151.445312 C 171.351562 165.28125 162.84375 178.046875 151.140625 183.363281 C 149.636719 184.265625 148.046875 184.574219 146.398438 184.574219 C 144.644531 184.574219 142.820312 184.226562 140.957031 183.882812 C 139.097656 183.535156 137.191406 183.191406 135.277344 183.191406 C 134.539062 183.191406 133.796875 183.242188 133.054688 183.363281 C 130.921875 183.363281 129.859375 185.492188 129.859375 186.554688 C 127.1875 197.265625 126.75 213.207031 118.515625 221.214844 C 113.726562 221.808594 108.898438 222.859375 104.183594 223.503906 C 107.730469 219.75 110.871094 215.753906 112.835938 211.027344 C 122.414062 188.683594 102.195312 167.40625 77.730469 162.085938 C 76.164062 162.085938 66.097656 149.5 67.917969 149.5 C 68.582031 149.5 70.8125 151.164062 75.601562 155.703125 C 76.832031 155.367188 78.050781 155.21875 79.257812 155.21875 C 83.625 155.21875 87.871094 157.140625 92.113281 159.066406 C 96.355469 160.988281 100.59375 162.910156 104.945312 162.90625 C 106.496094 162.90625 108.058594 162.664062 109.648438 162.085938 C 119.222656 158.894531 112.835938 144 110.710938 135.488281 C 109.839844 131.125 111.824219 127.476562 115.5 127.476562 C 116.308594 127.476562 117.199219 127.65625 118.160156 128.039062 C 119.222656 129.101562 121.351562 130.167969 122.414062 131.230469 C 126.667969 145.0625 121.351562 164.214844 135.179688 169.535156 C 139.390625 171.113281 142.992188 171.828125 146.089844 171.828125 C 168.027344 171.828125 164.167969 135.789062 166.035156 115.273438 C 178.804688 116.335938 171.351562 132.292969 179.867188 139.742188 C 181.375 140.492188 183.410156 141.25 184.847656 141.25 C 185.445312 141.25 185.941406 141.121094 186.246094 140.808594 C 190.507812 133.363281 195.417969 122.71875 200.738281 117.398438 C 216.691406 104.109375 247.195312 77.226562 272.316406 77.226562 C 277.351562 77.226562 282.171875 78.304688 286.617188 80.792969 C 288.742188 81.855469 261.792969 95.058594 263.917969 101.441406 C 264.984375 104.636719 267.109375 107.828125 263.917969 111.015625 C 252.214844 120.59375 237.320312 134.425781 243.703125 146.125 C 247.019531 152.339844 252.746094 153.875 259.515625 153.875 C 262.832031 153.875 266.402344 153.503906 270.050781 153.136719 C 273.707031 152.765625 277.445312 152.398438 281.109375 152.398438 C 285.515625 152.398438 289.804688 152.929688 293.710938 154.640625 C 280.101562 158.265625 269.589844 171.945312 256.898438 171.945312 C 254.703125 171.945312 252.441406 171.539062 250.089844 170.597656 C 240.902344 166.921875 232.507812 161.664062 222.171875 161.664062 C 220.535156 161.664062 218.847656 161.792969 217.105469 162.085938 C 213.914062 163.152344 210.722656 166.34375 210.722656 167.40625 C 202.207031 194.003906 238.382812 203.578125 256.46875 214.21875 C 240.925781 214.21875 222.8125 205.980469 207.851562 205.980469 C 201.304688 205.980469 195.363281 207.558594 190.507812 212.09375 C 181.996094 221.667969 202.207031 233.371094 216.039062 237.628906 C 218.171875 237.628906 223.488281 239.753906 221.359375 240.816406 C 218.121094 241.960938 214.953125 242.457031 211.84375 242.457031 C 197.5625 242.457031 184.457031 232.039062 171.351562 225.921875 C 169.0625 224.777344 166.363281 224.179688 163.742188 224.179688 C 159.058594 224.179688 154.628906 226.085938 153.269531 230.175781 C 146.886719 251.460938 160.71875 273.800781 171.351562 291.890625 C 172.417969 294.015625 172.417969 296.144531 172.417969 298.269531 M 133.898438 222.042969 C 133.902344 222.039062 133.902344 222.03125 133.910156 222.027344 C 133.902344 222.03125 133.902344 222.039062 133.898438 222.042969"/><path fill="#DDDCDC" d="M 133.898438 222.054688 C 133.898438 222.050781 133.898438 222.046875 133.898438 222.042969 C 133.898438 222.046875 133.898438 222.050781 133.898438 222.054688 M 133.910156 222.027344 C 133.914062 222.015625 133.917969 222.003906 133.917969 221.992188 C 133.917969 222.003906 133.914062 222.015625 133.910156 222.027344 M 133.917969 221.992188 C 131.066406 221.097656 128.128906 220.753906 125.140625 220.753906 C 122.953125 220.753906 120.738281 220.941406 118.511719 221.21875 C 118.511719 221.21875 118.511719 221.214844 118.515625 221.214844 C 120.738281 220.9375 122.945312 220.753906 125.128906 220.753906 C 126.523438 220.753906 127.898438 220.828125 129.265625 220.996094 C 130.835938 221.191406 132.386719 221.511719 133.917969 221.992188"/><path fill="#33873F" d="M 118.515625 221.214844 C 120.734375 220.9375 122.941406 220.753906 125.125 220.753906 C 126.515625 220.753906 127.898438 220.824219 129.265625 220.996094 C 127.898438 220.828125 126.523438 220.753906 125.128906 220.753906 C 122.945312 220.753906 120.738281 220.9375 118.515625 221.214844"/><path fill="#C0BEBF" d="M 133.917969 221.992188 C 132.386719 221.511719 130.835938 221.191406 129.265625 220.996094 C 130.835938 221.191406 132.386719 221.511719 133.917969 221.992188"/><path fill="#2C7436" d="M 144.753906 247.203125 C 141.28125 239.753906 135.949219 234.394531 129.632812 231.875 C 131.230469 228.652344 132.832031 225.382812 133.898438 222.054688 C 133.898438 222.050781 133.898438 222.046875 133.898438 222.042969 C 133.902344 222.039062 133.902344 222.03125 133.910156 222.027344 C 133.914062 222.015625 133.917969 222.003906 133.917969 221.992188 C 132.386719 221.511719 130.835938 221.191406 129.265625 220.996094 C 127.898438 220.824219 126.515625 220.753906 125.125 220.753906 C 122.941406 220.753906 120.734375 220.9375 118.515625 221.214844 C 126.75 213.207031 127.1875 197.265625 129.859375 186.554688 C 129.859375 185.492188 130.921875 183.363281 133.054688 183.363281 C 133.796875 183.242188 134.539062 183.191406 135.277344 183.191406 C 137.191406 183.191406 139.097656 183.535156 140.957031 183.882812 C 142.820312 184.226562 144.644531 184.574219 146.398438 184.574219 C 148.046875 184.574219 149.636719 184.265625 151.140625 183.363281 C 162.84375 178.046875 171.351562 165.28125 169.226562 151.445312 C 169.226562 150.382812 170.027344 150.117188 170.957031 150.117188 C 171.886719 150.117188 172.949219 150.382812 173.480469 150.382812 C 174.542969 151.445312 175.613281 154.640625 174.542969 156.765625 C 188.375 150.382812 200.082031 138.679688 208.59375 125.910156 C 213.914062 117.398438 221.359375 113.144531 229.871094 109.953125 C 233.285156 109.097656 237.386719 103.453125 241.621094 103.453125 C 242.664062 103.453125 243.71875 103.792969 244.765625 104.636719 C 246.898438 105.699219 245.832031 111.015625 245.832031 114.207031 C 243.703125 114.207031 241.574219 116.335938 240.511719 117.398438 C 224.554688 130.167969 220.296875 149.320312 237.320312 163.152344 C 235.195312 163.152344 233.066406 163.152344 230.9375 162.085938 C 227.742188 158.894531 224.554688 155.703125 222.425781 152.511719 C 219.765625 150.382812 216.570312 149.585938 213.246094 149.585938 C 209.925781 149.585938 206.464844 150.382812 203.273438 151.445312 C 195.828125 153.574219 195.828125 164.214844 192.636719 170.597656 C 185.1875 187.621094 200.082031 190.8125 213.914062 195.070312 C 213.914062 196.132812 214.976562 199.324219 212.847656 199.324219 C 211.941406 199.257812 211.039062 199.222656 210.148438 199.222656 C 197.472656 199.222656 186.472656 205.917969 174.542969 208.898438 C 173.480469 208.898438 174.542969 213.15625 175.613281 213.15625 C 179.867188 216.347656 181.996094 218.476562 183.058594 222.734375 C 174.542969 222.734375 166.878906 216.007812 158.554688 216.007812 C 157.511719 216.007812 156.457031 216.113281 155.394531 216.347656 C 141.5625 220.605469 144.753906 235.5 144.753906 247.203125"/><path fill="#2B7436" d="M 286.617188 80.792969 C 286.617188 80.792969 284.410156 81.738281 280.207031 83.546875 C 278.152344 84.546875 275.546875 85.644531 272.589844 87.195312 C 269.605469 88.675781 266.234375 90.527344 262.480469 92.667969 C 258.757812 94.871094 254.671875 97.390625 250.355469 100.375 C 246.039062 103.351562 241.472656 106.757812 236.765625 110.648438 C 232.105469 114.582031 227.203125 118.894531 222.410156 123.863281 C 217.597656 128.800781 212.761719 134.261719 208.082031 140.289062 C 203.375 146.273438 199.074219 153.046875 194.046875 160.074219 C 191.535156 163.582031 188.824219 167.136719 185.753906 170.585938 C 182.675781 174.050781 179.152344 177.308594 175.589844 180.289062 C 172.027344 183.292969 168.390625 186.152344 165 189.15625 C 163.304688 190.660156 161.671875 192.203125 160.136719 193.808594 C 159.519531 194.464844 158.113281 195.859375 157.214844 196.597656 C 156.210938 197.472656 155.21875 198.289062 154.242188 199.054688 C 146.402344 205.183594 138.539062 211.003906 130.820312 217.554688 C 115.410156 230.523438 100.542969 245.65625 88.722656 263.695312 C 76.878906 281.644531 68.363281 302.613281 65.753906 325.113281 C 63.859375 342.113281 64.488281 354.589844 64.277344 362.785156 C 64.398438 370.949219 63.527344 374.941406 61.824219 374.777344 C 60.984375 374.695312 59.957031 373.574219 58.796875 371.394531 C 58.21875 370.308594 57.597656 368.960938 56.960938 367.347656 C 56.28125 365.746094 55.671875 363.867188 55.160156 361.707031 C 54.605469 359.554688 54.046875 357.144531 53.5 354.476562 C 53.101562 351.789062 52.75 348.847656 52.410156 345.648438 C 52.085938 342.457031 52.140625 338.996094 52.0625 335.3125 C 52.136719 331.628906 52.425781 327.699219 52.84375 323.570312 C 54.300781 311.253906 57.371094 299.277344 61.777344 288.058594 C 66.167969 276.828125 71.867188 266.359375 78.375 256.785156 C 91.40625 237.582031 107.519531 222.015625 123.878906 209.058594 C 132.019531 202.550781 140.457031 196.714844 148.152344 191.132812 C 149.113281 190.433594 150.019531 189.738281 150.863281 189.0625 C 151.335938 188.710938 151.675781 188.394531 152.015625 188.089844 L 152.546875 187.628906 L 153.234375 186.957031 C 155.078125 185.160156 156.976562 183.511719 158.878906 181.957031 C 162.679688 178.847656 166.46875 176.113281 169.996094 173.375 C 173.554688 170.640625 176.753906 167.914062 179.675781 164.917969 C 182.601562 161.914062 185.300781 158.703125 187.882812 155.4375 C 193.039062 148.90625 197.824219 142.152344 203.046875 136.183594 C 208.214844 130.191406 213.503906 124.839844 218.742188 120.046875 C 223.960938 115.234375 229.238281 111.113281 234.238281 107.398438 C 239.285156 103.722656 244.148438 100.5625 248.730469 97.835938 C 253.308594 95.097656 257.613281 92.832031 261.519531 90.875 C 265.453125 88.984375 268.980469 87.375 272.09375 86.105469 C 275.171875 84.773438 277.871094 83.871094 279.996094 83.027344 C 284.335938 81.5625 286.617188 80.792969 286.617188 80.792969"/><path fill="#2B7436" d="M 177.308594 288.980469 C 177.308594 288.980469 175.164062 287.585938 171.390625 284.882812 C 167.679688 282.117188 162.125 278.199219 156.585938 271.65625 C 155.195312 270.03125 153.890625 268.179688 152.621094 266.167969 C 151.429688 264.117188 150.222656 261.917969 149.363281 259.457031 C 147.578125 254.554688 146.777344 248.957031 146.855469 243.246094 C 146.902344 237.519531 147.703125 231.679688 148.542969 225.816406 C 148.957031 222.894531 149.378906 219.9375 149.699219 216.988281 C 149.992188 214.042969 150.277344 211.070312 150.203125 208.144531 C 150.175781 203.714844 150.042969 200.621094 150.191406 198.457031 C 150.285156 196.324219 150.890625 195.058594 151.796875 194.871094 C 152.703125 194.683594 153.953125 195.601562 155.316406 197.796875 C 155.929688 198.898438 156.449219 200.339844 156.964844 202.066406 C 157.277344 203.792969 157.703125 205.84375 157.636719 208.085938 C 157.710938 211.464844 157.363281 214.699219 156.996094 217.84375 C 156.601562 220.988281 156.085938 224.007812 155.566406 226.945312 C 154.519531 232.800781 153.496094 238.296875 153.117188 243.492188 C 152.722656 248.679688 153.050781 253.53125 154.199219 257.894531 C 155.363281 262.25 157.375 266.109375 159.566406 269.433594 C 164.003906 276.09375 168.90625 280.742188 172.140625 283.992188 C 175.46875 287.207031 177.308594 288.980469 177.308594 288.980469"/><path fill="#2B7436" d="M 252.171875 253.886719 C 252.171875 253.886719 251.457031 254.007812 250.105469 254.238281 C 248.746094 254.4375 246.722656 254.683594 244.09375 254.742188 C 238.855469 254.914062 231.085938 254.183594 222.074219 251.078125 C 213.039062 248.042969 203.007812 242.445312 192.957031 235.132812 C 187.90625 231.488281 182.8125 227.484375 177.574219 223.351562 C 172.363281 219.175781 166.96875 214.851562 161.441406 210.421875 C 157.402344 207.09375 154.855469 205.144531 153.046875 203.832031 C 151.277344 202.507812 150.269531 201.605469 150.503906 200.660156 C 150.710938 199.792969 152.386719 198.871094 155.417969 199.25 C 158.421875 199.59375 162.375 201.542969 166.113281 204.636719 C 171.632812 209.132812 176.941406 213.539062 182.066406 217.839844 C 187.191406 222.136719 192.054688 226.328125 196.761719 230.148438 C 206.148438 237.824219 215.160156 243.875 223.449219 247.625 C 231.707031 251.429688 239.03125 253.0625 244.140625 253.585938 C 246.703125 253.871094 248.714844 253.914062 250.082031 253.921875 C 251.449219 253.902344 252.171875 253.886719 252.171875 253.886719"/><path fill="#2B7436" d="M 299.074219 216.585938 C 299.074219 216.585938 295.390625 217.121094 288.695312 217.855469 C 285.34375 218.222656 281.230469 218.589844 276.433594 218.863281 C 271.628906 219.097656 266.132812 219.199219 260.035156 218.789062 C 256.984375 218.59375 253.789062 218.234375 250.46875 217.683594 C 247.152344 217.140625 243.722656 216.335938 240.21875 215.296875 C 236.746094 214.15625 233.148438 212.878906 229.65625 211.050781 C 226.066406 209.351562 222.78125 207.101562 219.460938 205.300781 C 217.789062 204.410156 216.175781 203.53125 214.40625 202.992188 C 213.53125 202.707031 212.679688 202.34375 211.773438 202.101562 C 210.855469 201.890625 209.9375 201.679688 209.011719 201.464844 C 205.25 200.777344 201.273438 200.539062 197.132812 200.671875 C 188.832031 200.945312 180.007812 202.46875 170.472656 202.773438 C 163.234375 202.996094 157.824219 201.660156 154.691406 200.164062 C 151.5625 198.503906 150.539062 197.128906 151.0625 196.347656 C 151.609375 195.488281 153.59375 195.34375 156.761719 195.382812 C 159.929688 195.492188 164.382812 195.480469 170.269531 195.347656 C 179.070312 195.085938 187.992188 193.667969 196.992188 193.5625 C 201.496094 193.523438 206.03125 193.902344 210.425781 194.867188 C 211.519531 195.160156 212.601562 195.453125 213.683594 195.742188 C 214.75 196.078125 215.78125 196.539062 216.820312 196.9375 C 218.917969 197.6875 220.828125 198.820312 222.605469 199.871094 C 226.175781 202.035156 229.203125 204.335938 232.347656 206.015625 C 235.441406 207.859375 238.691406 209.222656 241.851562 210.484375 C 245.058594 211.652344 248.230469 212.625 251.347656 213.359375 C 254.460938 214.101562 257.496094 214.683594 260.425781 215.09375 C 266.28125 215.949219 271.671875 216.308594 276.414062 216.511719 C 281.160156 216.671875 285.269531 216.714844 288.628906 216.695312 C 295.355469 216.625 299.074219 216.585938 299.074219 216.585938"/><path fill="#2B7436" d="M 298.601562 151.425781 C 298.601562 151.425781 297.90625 151.757812 296.582031 152.386719 C 295.269531 153.035156 293.300781 153.917969 290.730469 154.992188 C 285.589844 157.125 277.964844 159.90625 268.15625 162.078125 C 265.707031 162.605469 263.125 163.152344 260.410156 163.558594 C 257.699219 164.019531 254.863281 164.375 251.917969 164.679688 C 246.019531 165.273438 239.664062 165.527344 232.980469 165.277344 C 229.636719 165.152344 226.207031 164.890625 222.726562 164.523438 C 219.335938 164.121094 215.871094 163.710938 212.347656 163.292969 C 205.449219 162.5625 198.484375 162.316406 192.15625 164.554688 C 187.378906 166.207031 184.449219 168.113281 182.375 169.355469 C 180.328125 170.605469 179.011719 171.199219 178.269531 170.558594 C 177.59375 169.980469 177.515625 168.046875 179.160156 165.316406 C 180.773438 162.640625 184.339844 159.34375 189.734375 157.527344 C 193.703125 156.140625 197.878906 155.535156 201.824219 155.46875 C 205.78125 155.378906 209.578125 155.742188 213.195312 156.230469 C 216.820312 156.71875 220.269531 157.328125 223.605469 157.835938 C 226.925781 158.324219 230.179688 158.726562 233.371094 159.019531 C 239.757812 159.601562 245.875 159.753906 251.597656 159.609375 C 254.460938 159.527344 257.230469 159.40625 259.882812 159.179688 C 262.546875 159.011719 265.089844 158.703125 267.519531 158.421875 C 277.242188 157.207031 285.027344 155.355469 290.355469 153.894531 C 293.019531 153.15625 295.085938 152.546875 296.46875 152.089844 C 297.867188 151.65625 298.601562 151.425781 298.601562 151.425781"/><path fill="#2B7436" d="M 169.910156 84.136719 C 169.910156 84.136719 169.40625 84.484375 168.652344 85.320312 C 167.90625 86.15625 167 87.574219 166.46875 89.59375 C 165.90625 91.613281 165.832031 94.15625 166.347656 97.089844 C 166.59375 98.558594 166.964844 100.128906 167.367188 101.832031 C 167.558594 102.699219 167.757812 103.589844 167.964844 104.503906 C 168.175781 105.457031 168.355469 106.113281 168.675781 107.070312 C 169.839844 110.660156 171.328125 114.65625 172.878906 118.925781 C 174.425781 123.21875 176.074219 127.800781 177.8125 132.628906 C 179.511719 137.472656 181.265625 142.574219 182.933594 147.960938 C 183.75 150.695312 184.597656 153.371094 185.261719 156.460938 C 185.453125 157.136719 185.570312 158.234375 185.6875 159.136719 C 185.722656 160.007812 185.730469 160.851562 185.6875 161.710938 C 185.589844 163.425781 185.324219 165.136719 184.859375 166.828125 C 183.46875 171.984375 180.304688 175.007812 178 176.042969 C 175.632812 177.113281 174.265625 176.605469 173.96875 175.765625 C 173.632812 174.863281 174.203125 173.570312 174.996094 171.882812 C 175.765625 170.160156 176.835938 168.003906 177.695312 164.867188 C 178.285156 162.605469 178.578125 159.894531 178.058594 157.902344 C 177.558594 155.34375 176.792969 152.574219 176.105469 149.9375 C 174.621094 144.585938 173.191406 139.421875 171.828125 134.507812 C 170.488281 129.550781 169.21875 124.84375 168.027344 120.4375 C 166.882812 116 165.839844 111.882812 165.066406 107.964844 C 164.867188 107.058594 164.703125 105.84375 164.632812 104.980469 C 164.542969 104.074219 164.460938 103.1875 164.382812 102.332031 C 164.207031 100.589844 164.042969 98.90625 164.007812 97.308594 C 163.890625 94.113281 164.414062 91.257812 165.375 89.203125 C 166.296875 87.125 167.515625 85.804688 168.433594 85.09375 C 169.351562 84.371094 169.910156 84.136719 169.910156 84.136719"/><path fill="#2B7436" d="M 117.921875 73.910156 C 117.921875 73.910156 117.648438 74.800781 117.136719 76.503906 C 116.855469 77.34375 116.625 78.421875 116.292969 79.675781 C 115.949219 80.917969 115.703125 82.402344 115.351562 84.035156 C 114.757812 87.339844 114.21875 91.398438 113.945312 96.140625 C 113.671875 100.882812 113.644531 106.289062 113.914062 112.273438 C 114.167969 118.25 114.671875 124.828125 115.210938 131.878906 C 115.78125 138.835938 116.632812 146.207031 120.191406 152.480469 C 122 155.632812 124.394531 158.648438 127.117188 161.679688 C 129.828125 164.71875 132.847656 167.789062 135.714844 171.339844 C 138.570312 174.839844 141.324219 179.011719 142.988281 183.679688 C 144.738281 188.300781 145.558594 193.300781 145.550781 198.339844 C 145.425781 206.011719 143.046875 211.265625 141.042969 214.121094 C 138.992188 217.019531 137.300781 217.707031 136.660156 217.082031 C 135.082031 215.65625 137.84375 209.410156 138.117188 198.273438 C 138.121094 194.109375 137.476562 189.988281 136.089844 186.207031 C 134.777344 182.390625 132.664062 179.03125 130.132812 175.746094 C 127.625 172.480469 124.75 169.371094 122.011719 166.078125 C 119.265625 162.808594 116.652344 159.300781 114.660156 155.425781 C 112.667969 151.511719 111.554688 147.367188 110.960938 143.441406 C 110.363281 139.496094 110.210938 135.714844 110.136719 132.128906 C 110.027344 125.007812 109.984375 118.375 110.195312 112.285156 C 110.390625 106.203125 110.886719 100.691406 111.609375 95.898438 C 112.324219 91.101562 113.28125 87.03125 114.21875 83.765625 C 114.75 82.144531 115.15625 80.695312 115.640625 79.476562 C 116.105469 78.253906 116.457031 77.207031 116.832031 76.398438 C 117.546875 74.761719 117.921875 73.910156 117.921875 73.910156"/><path fill="#2B7436" d="M 61.832031 131.289062 C 61.832031 131.289062 61.929688 132.015625 62.109375 133.386719 C 62.238281 134.066406 62.464844 134.894531 62.714844 135.859375 C 63.074219 136.800781 63.410156 137.898438 64.027344 139.035156 C 64.289062 139.621094 64.636719 140.203125 65.023438 140.804688 C 65.378906 141.421875 65.800781 142.03125 66.289062 142.644531 C 67.199219 143.90625 68.359375 145.144531 69.667969 146.390625 C 72.289062 148.886719 75.757812 151.210938 79.824219 153.246094 C 83.898438 155.265625 88.65625 156.746094 93.984375 158.179688 C 99.285156 159.644531 105.125 161.007812 111.222656 163.34375 C 114.257812 164.519531 117.355469 165.964844 120.347656 167.851562 C 123.332031 169.746094 126.1875 172.054688 128.691406 174.722656 C 133.746094 180.054688 137.554688 186.550781 140.625 193.292969 C 145.152344 203.585938 144.75 208.789062 142.992188 209.136719 C 141.089844 209.527344 137.65625 204.917969 133.867188 196.382812 C 130.984375 190.046875 127.644531 184.226562 123.46875 179.550781 C 119.324219 174.835938 114.269531 171.570312 108.800781 169.128906 C 103.363281 166.679688 97.726562 164.925781 92.460938 163.027344 C 87.203125 161.164062 82.1875 159.101562 78.019531 156.496094 C 73.875 153.886719 70.453125 151.003906 67.960938 148.011719 C 66.71875 146.515625 65.648438 145.050781 64.847656 143.589844 C 64.414062 142.882812 64.054688 142.179688 63.757812 141.480469 C 63.433594 140.796875 63.15625 140.140625 62.960938 139.484375 C 62.472656 138.21875 62.273438 137.019531 62.042969 136.019531 C 61.929688 134.984375 61.820312 134.121094 61.792969 133.421875 C 61.820312 132.023438 61.832031 131.289062 61.832031 131.289062"/><path fill="#55A75A" d="M 165.914062 316.613281 C 164.535156 316.613281 163.15625 316.492188 161.769531 316.21875 C 152.773438 314.464844 146.542969 306.605469 140.707031 299.53125 C 136.46875 294.390625 139.53125 293.703125 141.472656 293.703125 C 142.179688 293.703125 142.742188 293.792969 142.742188 293.792969 C 143.921875 293.410156 145.164062 293.21875 146.410156 293.21875 C 148.414062 293.21875 150.421875 293.71875 152.179688 294.683594 C 155.507812 296.511719 157.789062 299.816406 161.011719 301.824219 C 163.605469 303.445312 166.488281 304.074219 169.476562 304.074219 C 174.613281 304.074219 180.074219 302.21875 184.976562 300.3125 C 186.261719 299.820312 187.578125 299.296875 188.558594 298.339844 C 189.167969 297.746094 189.628906 296.996094 190.347656 296.535156 C 191.148438 296.015625 192.144531 295.941406 193.105469 295.941406 C 193.167969 295.941406 193.226562 295.941406 193.289062 295.941406 C 197.453125 295.972656 201.613281 296.710938 205.535156 298.105469 C 208.730469 299.25 212.261719 301.617188 212.007812 305.007812 C 211.804688 307.765625 209.027344 309.699219 206.300781 310.148438 C 205.582031 310.265625 204.859375 310.3125 204.140625 310.3125 C 202.113281 310.3125 200.070312 309.960938 198.035156 309.867188 C 197.6875 309.855469 197.335938 309.847656 196.984375 309.847656 C 191.695312 309.847656 186.515625 311.535156 181.367188 313.230469 C 176.210938 314.917969 171.089844 316.613281 165.914062 316.613281"/><path fill="#55A75A" d="M 274.152344 285.050781 C 268.863281 285.050781 263.582031 284.640625 258.480469 283.300781 C 251.421875 281.453125 244.667969 277.683594 240.375 271.78125 L 241.511719 267.34375 C 243.199219 266.917969 244.941406 266.710938 246.679688 266.710938 C 252.238281 266.710938 257.804688 268.828125 261.847656 272.65625 C 263.386719 274.117188 264.710938 275.800781 266.316406 277.203125 C 269.394531 279.902344 273.476562 281.429688 277.570312 281.429688 C 277.59375 281.429688 277.617188 281.429688 277.636719 281.429688 C 277.921875 281.425781 278.214844 281.421875 278.507812 281.421875 C 279.363281 281.421875 280.222656 281.484375 280.9375 281.9375 C 281.890625 282.542969 282.199219 284.210938 281.1875 284.71875 C 280.894531 284.871094 280.554688 284.886719 280.21875 284.898438 C 278.203125 284.996094 276.175781 285.050781 274.152344 285.050781"/><path fill="#55A75A" d="M 81.867188 217.140625 C 81.601562 217.140625 81.328125 217.136719 81.058594 217.121094 C 79.378906 217.0625 77.695312 216.875 76.089844 216.382812 C 70.347656 214.613281 66.558594 209.289062 63.210938 204.304688 C 62.871094 203.800781 62.519531 203.269531 62.441406 202.667969 C 62.203125 200.800781 64.480469 199.691406 66.34375 199.449219 C 67.363281 199.316406 68.386719 199.265625 69.414062 199.265625 C 71.867188 199.265625 74.335938 199.578125 76.800781 199.894531 C 79.261719 200.210938 81.730469 200.527344 84.179688 200.527344 C 85.445312 200.527344 86.707031 200.445312 87.964844 200.226562 C 89.757812 199.925781 91.539062 199.363281 93.351562 199.363281 C 93.585938 199.363281 93.828125 199.371094 94.070312 199.394531 C 96.125 199.578125 98.28125 201 98.394531 203.0625 C 98.394531 203.0625 106.46875 211.734375 96.175781 214.347656 C 91.433594 215.550781 86.738281 217.140625 81.867188 217.140625"/><path fill="#55A75A" d="M 286.667969 233.582031 C 279.476562 233.582031 272.296875 231.804688 265.582031 229.015625 C 258.414062 226.035156 267.605469 225.300781 267.605469 225.300781 C 273.707031 225.066406 279.804688 224.835938 285.90625 224.605469 C 293.851562 224.300781 302.167969 223.898438 309.039062 219.890625 C 311.472656 218.476562 313.664062 216.628906 316.226562 215.449219 C 317.628906 214.808594 319.210938 214.390625 320.75 214.390625 C 322.015625 214.390625 323.253906 214.671875 324.339844 215.347656 C 324.625 215.523438 324.902344 215.734375 325.03125 216.046875 C 325.238281 216.550781 324.960938 217.125 324.636719 217.570312 C 323.808594 218.722656 322.652344 219.59375 321.503906 220.417969 C 313.421875 226.230469 304.355469 230.890625 294.59375 232.820312 C 291.964844 233.34375 289.3125 233.582031 286.667969 233.582031"/><path fill="#55A75A" d="M 285.066406 175.085938 C 283.324219 175.085938 281.601562 174.796875 279.925781 174.132812 L 283.054688 170.007812 C 295.460938 158.445312 315.238281 156.976562 326.582031 144.367188 C 328.5625 142.164062 330.441406 139.53125 333.304688 138.761719 C 333.792969 138.632812 334.300781 138.566406 334.804688 138.566406 C 336.8125 138.566406 338.835938 139.566406 339.976562 141.226562 C 341.40625 143.316406 341.367188 146.296875 339.875 148.339844 C 338.769531 149.863281 337.042969 150.789062 335.378906 151.664062 C 323.710938 157.785156 312.054688 163.910156 300.390625 170.03125 C 295.621094 172.539062 290.261719 175.085938 285.066406 175.085938"/><path fill="#55A75A" d="M 274.632812 120.617188 C 276.257812 115.164062 275.257812 108.984375 271.988281 104.328125 C 271.335938 103.394531 270.558594 102.378906 270.726562 101.257812 C 270.855469 100.421875 271.484375 99.765625 272.113281 99.195312 C 277.421875 94.363281 284.414062 91.667969 289.648438 86.757812 C 292.917969 83.695312 295.433594 79.835938 299.050781 77.195312 C 302.164062 74.921875 306.019531 73.695312 309.867188 73.695312 C 310.742188 73.695312 311.625 73.757812 312.492188 73.890625 C 313.097656 73.980469 313.753906 74.132812 314.140625 74.613281 C 314.453125 75.011719 314.519531 75.550781 314.523438 76.058594 C 314.59375 82.628906 307.863281 87.078125 305.328125 93.140625 C 303.664062 97.105469 303.824219 101.769531 301.546875 105.421875 C 299.605469 108.53125 296.199219 110.402344 292.8125 111.804688 C 288.992188 113.386719 285.011719 114.558594 280.941406 115.292969 L 274.632812 120.617188"/><path fill="#55A75A" d="M 46.371094 177.070312 C 45.773438 177.070312 45.167969 176.898438 44.671875 176.558594 L 39.945312 173.25 C 41.585938 168.886719 42.9375 164.085938 41.582031 159.625 C 39.640625 153.257812 32.738281 149.402344 30.703125 143.0625 C 28.308594 135.605469 33.414062 127.878906 33.78125 120.050781 C 33.910156 117.277344 33.5 114.242188 35.054688 111.945312 C 36.164062 110.308594 37.984375 109.585938 39.917969 109.585938 C 42.429688 109.585938 45.128906 110.800781 46.71875 112.808594 C 49.535156 116.367188 49.851562 121.234375 50.042969 125.773438 C 50.199219 129.402344 50.355469 133.023438 50.515625 136.652344 C 50.648438 139.789062 50.800781 142.984375 51.910156 145.921875 C 53.597656 150.386719 57.492188 154.28125 57.167969 159.042969 C 57.125 159.644531 57.007812 160.257812 56.683594 160.761719 C 55.78125 162.148438 53.800781 162.152344 52.242188 162.6875 C 49.691406 163.570312 48.019531 166.132812 47.453125 168.765625 C 46.886719 171.40625 47.234375 174.144531 47.585938 176.820312 C 47.207031 176.988281 46.792969 177.070312 46.371094 177.070312"/><path fill="#55A75A" d="M 130.101562 122.085938 L 123.4375 118.496094 C 121.402344 118.378906 119.796875 116.53125 119.324219 114.550781 C 118.855469 112.566406 119.28125 110.488281 119.804688 108.523438 C 121.523438 102.109375 124.300781 95.992188 125.714844 89.503906 C 127.121094 83.015625 126.996094 75.78125 123.285156 70.273438 C 121.199219 67.183594 118.089844 64.789062 116.484375 61.414062 C 113.410156 54.964844 116.75 47.40625 120.304688 41.210938 C 121.445312 39.226562 122.707031 37.164062 124.710938 36.050781 C 125.476562 35.621094 126.386719 35.398438 127.28125 35.398438 C 128.710938 35.398438 130.097656 35.976562 130.785156 37.210938 C 131.753906 38.957031 130.984375 41.097656 130.542969 43.046875 C 128.066406 53.933594 136.589844 64.28125 137.503906 75.40625 C 138.601562 88.8125 128.5625 101.65625 131.085938 114.859375 C 131.574219 117.410156 132.261719 120.652344 130.101562 122.085938"/><path fill="#55A75A" d="M 34.648438 85.15625 L 33.566406 78.054688 C 33.347656 73.929688 36.5 70.503906 39.328125 67.496094 C 44.746094 61.71875 49.75 55.550781 54.277344 49.046875 C 55.824219 46.824219 57.46875 44.433594 59.992188 43.453125 C 60.878906 43.109375 61.792969 42.960938 62.722656 42.960938 C 65.046875 42.960938 67.445312 43.863281 69.652344 44.761719 C 70.445312 47.8125 67.898438 50.582031 66.050781 53.132812 C 64.367188 55.445312 63.136719 58.085938 62.4375 60.855469 C 62.039062 62.425781 61.808594 64.0625 61.046875 65.496094 C 59.597656 68.21875 56.601562 69.648438 53.917969 71.175781 C 49.902344 73.453125 46.210938 76.3125 43.011719 79.640625 C 40.632812 82.117188 38.082031 85.058594 34.648438 85.15625"/><path fill="#55A75A" d="M 175 112.15625 C 173.480469 112.15625 172.25 110.398438 171.726562 108.824219 C 170.605469 105.421875 170.402344 101.722656 171.152344 98.21875 C 171.878906 94.820312 173.472656 91.660156 174.253906 88.265625 C 175.042969 84.878906 174.855469 80.953125 172.472656 78.417969 C 170.949219 76.796875 168.753906 75.980469 167.125 74.472656 C 164.785156 72.308594 163.878906 68.863281 164.398438 65.722656 C 164.921875 62.582031 166.734375 59.753906 169.0625 57.582031 C 169.878906 56.824219 170.96875 56.105469 172.011719 56.105469 C 172.335938 56.105469 172.652344 56.175781 172.960938 56.328125 C 173.921875 56.808594 174.316406 57.960938 174.609375 58.996094 C 178.925781 74.449219 179.863281 90.84375 177.328125 106.6875 L 175.613281 112.0625 C 175.40625 112.125 175.195312 112.15625 175 112.15625"/><path fill="#55A75A" d="M 200.1875 113.03125 L 199.257812 102.167969 C 202.355469 89.832031 208.425781 78.257812 216.808594 68.691406 C 217.730469 68.605469 218.699219 68.53125 219.664062 68.53125 C 222.242188 68.53125 224.789062 69.039062 226.261719 71.03125 C 227.648438 72.902344 227.761719 75.757812 229.765625 76.9375 C 230.355469 77.28125 230.996094 77.414062 231.65625 77.414062 C 232.992188 77.414062 234.417969 76.871094 235.71875 76.417969 C 236.574219 76.125 237.550781 75.914062 238.472656 75.914062 C 239.65625 75.914062 240.75 76.261719 241.378906 77.234375 C 242.589844 79.101562 240.976562 81.535156 239.195312 82.871094 C 236.597656 84.820312 233.515625 85.996094 230.554688 87.34375 C 218.339844 92.910156 207.703125 101.910156 200.1875 113.03125"/></svg>